ISO-10303-21;
HEADER;
/* Generated by software containing ST-Developer
 * from STEP Tools, Inc. (www.steptools.com) 
 */
/* OPTION: using custom renumber hook */

FILE_DESCRIPTION(
/* description */ ('STEP AP242 Edition 2',
'CAx-IF Rec.Pracs.---Representation and Presentation of Product Manufa
cturing Information (PMI)---4.0---2014-10-13',
'CAx-IF Rec.Pracs.---3D Tessellated Geometry---0.4---2014-09-14','2;1',
'CAx-IF Rec.Pracs.---User Defined Attributes---1.5---2016-08-15'),
/* implementation_level */ '2;1');

FILE_NAME(
/* name */ '6a8b33130ea84131d9fe44e2',
/* time_stamp */ '2026-08-23T17:51:16Z',
/* author */ (''),
/* organization */ (''),
/* preprocessor_version */ 'ST-DEVELOPER v20',
/* originating_system */ 'ONSHAPE BY PTC INC, 1.219',
/* authorisation */ '  ');

FILE_SCHEMA (('AP242_MANAGED_MODEL_BASED_3D_ENGINEERING_MIM_LF { 1 0 10303 442 3 1 4 }'));
ENDSEC;

DATA;
#10=LINE('',#1089,#40);
#11=LINE('',#1093,#41);
#12=LINE('',#1097,#42);
#13=LINE('',#1103,#43);
#14=LINE('',#1109,#44);
#15=LINE('',#1115,#45);
#16=LINE('',#1121,#46);
#17=LINE('',#1127,#47);
#18=LINE('',#1133,#48);
#19=LINE('',#1139,#49);
#20=LINE('',#1145,#50);
#21=LINE('',#1151,#51);
#22=LINE('',#1169,#52);
#23=LINE('',#1173,#53);
#24=LINE('',#1177,#54);
#25=LINE('',#1183,#55);
#26=LINE('',#1189,#56);
#27=LINE('',#1195,#57);
#28=LINE('',#1208,#58);
#29=LINE('',#1212,#59);
#30=LINE('',#1216,#60);
#31=LINE('',#1222,#61);
#32=LINE('',#1228,#62);
#33=LINE('',#1234,#63);
#34=LINE('',#1240,#64);
#35=LINE('',#1246,#65);
#36=LINE('',#1252,#66);
#37=LINE('',#1258,#67);
#38=LINE('',#1264,#68);
#39=LINE('',#1270,#69);
#40=VECTOR('',#846,1.);
#41=VECTOR('',#849,1.);
#42=VECTOR('',#854,1.);
#43=VECTOR('',#861,1.);
#44=VECTOR('',#868,1.);
#45=VECTOR('',#875,1.);
#46=VECTOR('',#882,1.);
#47=VECTOR('',#889,1.);
#48=VECTOR('',#896,1.);
#49=VECTOR('',#903,1.);
#50=VECTOR('',#910,1.);
#51=VECTOR('',#917,1.);
#52=VECTOR('',#942,1.);
#53=VECTOR('',#945,1.);
#54=VECTOR('',#950,1.);
#55=VECTOR('',#957,1.);
#56=VECTOR('',#964,1.);
#57=VECTOR('',#971,1.);
#58=VECTOR('',#990,1.);
#59=VECTOR('',#993,1.);
#60=VECTOR('',#998,1.);
#61=VECTOR('',#1005,1.);
#62=VECTOR('',#1012,1.);
#63=VECTOR('',#1019,1.);
#64=VECTOR('',#1026,1.);
#65=VECTOR('',#1033,1.);
#66=VECTOR('',#1040,1.);
#67=VECTOR('',#1047,1.);
#68=VECTOR('',#1054,1.);
#69=VECTOR('',#1061,1.);
#70=CONTEXT_DEPENDENT_SHAPE_REPRESENTATION(#78,#1295);
#71=CONTEXT_DEPENDENT_SHAPE_REPRESENTATION(#79,#1297);
#72=CONTEXT_DEPENDENT_SHAPE_REPRESENTATION(#80,#1299);
#73=CONTEXT_DEPENDENT_SHAPE_REPRESENTATION(#81,#1301);
#74=NEXT_ASSEMBLY_USAGE_OCCURRENCE('NAUO1','Part 1','Part 1',#1302,#1303,
'');
#75=NEXT_ASSEMBLY_USAGE_OCCURRENCE('NAUO2','Part 1','Part 1',#1302,#1304,
'');
#76=NEXT_ASSEMBLY_USAGE_OCCURRENCE('NAUO3','Part 1','Part 1',#1302,#1305,
'');
#77=NEXT_ASSEMBLY_USAGE_OCCURRENCE('NAUO4','Part 1','Part 1',#1302,#1306,
'');
#78=(
REPRESENTATION_RELATIONSHIP(' ',' ',#715,#714)
REPRESENTATION_RELATIONSHIP_WITH_TRANSFORMATION(#82)
SHAPE_REPRESENTATION_RELATIONSHIP()
);
#79=(
REPRESENTATION_RELATIONSHIP(' ',' ',#716,#714)
REPRESENTATION_RELATIONSHIP_WITH_TRANSFORMATION(#83)
SHAPE_REPRESENTATION_RELATIONSHIP()
);
#80=(
REPRESENTATION_RELATIONSHIP(' ',' ',#717,#714)
REPRESENTATION_RELATIONSHIP_WITH_TRANSFORMATION(#84)
SHAPE_REPRESENTATION_RELATIONSHIP()
);
#81=(
REPRESENTATION_RELATIONSHIP(' ',' ',#718,#714)
REPRESENTATION_RELATIONSHIP_WITH_TRANSFORMATION(#85)
SHAPE_REPRESENTATION_RELATIONSHIP()
);
#82=ITEM_DEFINED_TRANSFORMATION(' ',' ',#719,#725);
#83=ITEM_DEFINED_TRANSFORMATION(' ',' ',#719,#767);
#84=ITEM_DEFINED_TRANSFORMATION(' ',' ',#719,#788);
#85=ITEM_DEFINED_TRANSFORMATION(' ',' ',#719,#827);
#86=SHAPE_REPRESENTATION_RELATIONSHIP('','',#715,#90);
#87=SHAPE_REPRESENTATION_RELATIONSHIP('','',#716,#91);
#88=SHAPE_REPRESENTATION_RELATIONSHIP('','',#717,#92);
#89=SHAPE_REPRESENTATION_RELATIONSHIP('','',#718,#93);
#90=ADVANCED_BREP_SHAPE_REPRESENTATION('',(#705),#1281);
#91=ADVANCED_BREP_SHAPE_REPRESENTATION('',(#706),#1282);
#92=ADVANCED_BREP_SHAPE_REPRESENTATION('',(#707),#1283);
#93=ADVANCED_BREP_SHAPE_REPRESENTATION('',(#708),#1284);
#94=PLANE('',#723);
#95=PLANE('',#724);
#96=PLANE('',#762);
#97=PLANE('',#764);
#98=PLANE('',#786);
#99=PLANE('',#787);
#100=PLANE('',#825);
#101=PLANE('',#826);
#102=ORIENTED_EDGE('',*,*,#290,.F.);
#103=ORIENTED_EDGE('',*,*,#291,.T.);
#104=ORIENTED_EDGE('',*,*,#290,.T.);
#105=ORIENTED_EDGE('',*,*,#291,.F.);
#106=ORIENTED_EDGE('',*,*,#292,.F.);
#107=ORIENTED_EDGE('',*,*,#293,.F.);
#108=ORIENTED_EDGE('',*,*,#294,.T.);
#109=ORIENTED_EDGE('',*,*,#295,.T.);
#110=ORIENTED_EDGE('',*,*,#296,.F.);
#111=ORIENTED_EDGE('',*,*,#297,.F.);
#112=ORIENTED_EDGE('',*,*,#298,.T.);
#113=ORIENTED_EDGE('',*,*,#293,.T.);
#114=ORIENTED_EDGE('',*,*,#299,.T.);
#115=ORIENTED_EDGE('',*,*,#300,.F.);
#116=ORIENTED_EDGE('',*,*,#301,.F.);
#117=ORIENTED_EDGE('',*,*,#297,.T.);
#118=ORIENTED_EDGE('',*,*,#302,.F.);
#119=ORIENTED_EDGE('',*,*,#303,.F.);
#120=ORIENTED_EDGE('',*,*,#304,.T.);
#121=ORIENTED_EDGE('',*,*,#300,.T.);
#122=ORIENTED_EDGE('',*,*,#305,.F.);
#123=ORIENTED_EDGE('',*,*,#306,.F.);
#124=ORIENTED_EDGE('',*,*,#307,.T.);
#125=ORIENTED_EDGE('',*,*,#303,.T.);
#126=ORIENTED_EDGE('',*,*,#308,.F.);
#127=ORIENTED_EDGE('',*,*,#309,.F.);
#128=ORIENTED_EDGE('',*,*,#310,.T.);
#129=ORIENTED_EDGE('',*,*,#306,.T.);
#130=ORIENTED_EDGE('',*,*,#311,.F.);
#131=ORIENTED_EDGE('',*,*,#312,.F.);
#132=ORIENTED_EDGE('',*,*,#313,.T.);
#133=ORIENTED_EDGE('',*,*,#309,.T.);
#134=ORIENTED_EDGE('',*,*,#314,.T.);
#135=ORIENTED_EDGE('',*,*,#315,.F.);
#136=ORIENTED_EDGE('',*,*,#316,.F.);
#137=ORIENTED_EDGE('',*,*,#312,.T.);
#138=ORIENTED_EDGE('',*,*,#317,.F.);
#139=ORIENTED_EDGE('',*,*,#318,.F.);
#140=ORIENTED_EDGE('',*,*,#319,.T.);
#141=ORIENTED_EDGE('',*,*,#315,.T.);
#142=ORIENTED_EDGE('',*,*,#320,.T.);
#143=ORIENTED_EDGE('',*,*,#321,.F.);
#144=ORIENTED_EDGE('',*,*,#322,.F.);
#145=ORIENTED_EDGE('',*,*,#318,.T.);
#146=ORIENTED_EDGE('',*,*,#323,.F.);
#147=ORIENTED_EDGE('',*,*,#324,.F.);
#148=ORIENTED_EDGE('',*,*,#325,.T.);
#149=ORIENTED_EDGE('',*,*,#321,.T.);
#150=ORIENTED_EDGE('',*,*,#326,.F.);
#151=ORIENTED_EDGE('',*,*,#295,.F.);
#152=ORIENTED_EDGE('',*,*,#327,.T.);
#153=ORIENTED_EDGE('',*,*,#324,.T.);
#154=ORIENTED_EDGE('',*,*,#328,.F.);
#155=ORIENTED_EDGE('',*,*,#294,.F.);
#156=ORIENTED_EDGE('',*,*,#298,.F.);
#157=ORIENTED_EDGE('',*,*,#301,.T.);
#158=ORIENTED_EDGE('',*,*,#304,.F.);
#159=ORIENTED_EDGE('',*,*,#307,.F.);
#160=ORIENTED_EDGE('',*,*,#310,.F.);
#161=ORIENTED_EDGE('',*,*,#313,.F.);
#162=ORIENTED_EDGE('',*,*,#316,.T.);
#163=ORIENTED_EDGE('',*,*,#319,.F.);
#164=ORIENTED_EDGE('',*,*,#322,.T.);
#165=ORIENTED_EDGE('',*,*,#325,.F.);
#166=ORIENTED_EDGE('',*,*,#327,.F.);
#167=ORIENTED_EDGE('',*,*,#329,.T.);
#168=ORIENTED_EDGE('',*,*,#292,.T.);
#169=ORIENTED_EDGE('',*,*,#326,.T.);
#170=ORIENTED_EDGE('',*,*,#323,.T.);
#171=ORIENTED_EDGE('',*,*,#320,.F.);
#172=ORIENTED_EDGE('',*,*,#317,.T.);
#173=ORIENTED_EDGE('',*,*,#314,.F.);
#174=ORIENTED_EDGE('',*,*,#311,.T.);
#175=ORIENTED_EDGE('',*,*,#308,.T.);
#176=ORIENTED_EDGE('',*,*,#305,.T.);
#177=ORIENTED_EDGE('',*,*,#302,.T.);
#178=ORIENTED_EDGE('',*,*,#299,.F.);
#179=ORIENTED_EDGE('',*,*,#296,.T.);
#180=ORIENTED_EDGE('',*,*,#328,.T.);
#181=ORIENTED_EDGE('',*,*,#329,.F.);
#182=ORIENTED_EDGE('',*,*,#330,.F.);
#183=ORIENTED_EDGE('',*,*,#331,.F.);
#184=ORIENTED_EDGE('',*,*,#332,.T.);
#185=ORIENTED_EDGE('',*,*,#333,.T.);
#186=ORIENTED_EDGE('',*,*,#334,.T.);
#187=ORIENTED_EDGE('',*,*,#335,.F.);
#188=ORIENTED_EDGE('',*,*,#336,.F.);
#189=ORIENTED_EDGE('',*,*,#331,.T.);
#190=ORIENTED_EDGE('',*,*,#337,.F.);
#191=ORIENTED_EDGE('',*,*,#338,.F.);
#192=ORIENTED_EDGE('',*,*,#339,.T.);
#193=ORIENTED_EDGE('',*,*,#335,.T.);
#194=ORIENTED_EDGE('',*,*,#340,.T.);
#195=ORIENTED_EDGE('',*,*,#341,.F.);
#196=ORIENTED_EDGE('',*,*,#342,.F.);
#197=ORIENTED_EDGE('',*,*,#338,.T.);
#198=ORIENTED_EDGE('',*,*,#343,.F.);
#199=ORIENTED_EDGE('',*,*,#344,.F.);
#200=ORIENTED_EDGE('',*,*,#345,.T.);
#201=ORIENTED_EDGE('',*,*,#341,.T.);
#202=ORIENTED_EDGE('',*,*,#346,.T.);
#203=ORIENTED_EDGE('',*,*,#333,.F.);
#204=ORIENTED_EDGE('',*,*,#347,.F.);
#205=ORIENTED_EDGE('',*,*,#344,.T.);
#206=ORIENTED_EDGE('',*,*,#332,.F.);
#207=ORIENTED_EDGE('',*,*,#336,.T.);
#208=ORIENTED_EDGE('',*,*,#339,.F.);
#209=ORIENTED_EDGE('',*,*,#342,.T.);
#210=ORIENTED_EDGE('',*,*,#345,.F.);
#211=ORIENTED_EDGE('',*,*,#347,.T.);
#212=ORIENTED_EDGE('',*,*,#330,.T.);
#213=ORIENTED_EDGE('',*,*,#346,.F.);
#214=ORIENTED_EDGE('',*,*,#343,.T.);
#215=ORIENTED_EDGE('',*,*,#340,.F.);
#216=ORIENTED_EDGE('',*,*,#337,.T.);
#217=ORIENTED_EDGE('',*,*,#334,.F.);
#218=ORIENTED_EDGE('',*,*,#348,.T.);
#219=ORIENTED_EDGE('',*,*,#349,.F.);
#220=ORIENTED_EDGE('',*,*,#350,.F.);
#221=ORIENTED_EDGE('',*,*,#351,.T.);
#222=ORIENTED_EDGE('',*,*,#352,.F.);
#223=ORIENTED_EDGE('',*,*,#353,.F.);
#224=ORIENTED_EDGE('',*,*,#354,.T.);
#225=ORIENTED_EDGE('',*,*,#349,.T.);
#226=ORIENTED_EDGE('',*,*,#355,.T.);
#227=ORIENTED_EDGE('',*,*,#356,.F.);
#228=ORIENTED_EDGE('',*,*,#357,.F.);
#229=ORIENTED_EDGE('',*,*,#353,.T.);
#230=ORIENTED_EDGE('',*,*,#358,.F.);
#231=ORIENTED_EDGE('',*,*,#359,.F.);
#232=ORIENTED_EDGE('',*,*,#360,.T.);
#233=ORIENTED_EDGE('',*,*,#356,.T.);
#234=ORIENTED_EDGE('',*,*,#361,.T.);
#235=ORIENTED_EDGE('',*,*,#362,.F.);
#236=ORIENTED_EDGE('',*,*,#363,.F.);
#237=ORIENTED_EDGE('',*,*,#359,.T.);
#238=ORIENTED_EDGE('',*,*,#364,.T.);
#239=ORIENTED_EDGE('',*,*,#365,.F.);
#240=ORIENTED_EDGE('',*,*,#366,.F.);
#241=ORIENTED_EDGE('',*,*,#362,.T.);
#242=ORIENTED_EDGE('',*,*,#367,.T.);
#243=ORIENTED_EDGE('',*,*,#368,.F.);
#244=ORIENTED_EDGE('',*,*,#369,.F.);
#245=ORIENTED_EDGE('',*,*,#365,.T.);
#246=ORIENTED_EDGE('',*,*,#370,.T.);
#247=ORIENTED_EDGE('',*,*,#371,.F.);
#248=ORIENTED_EDGE('',*,*,#372,.F.);
#249=ORIENTED_EDGE('',*,*,#368,.T.);
#250=ORIENTED_EDGE('',*,*,#373,.F.);
#251=ORIENTED_EDGE('',*,*,#374,.F.);
#252=ORIENTED_EDGE('',*,*,#375,.T.);
#253=ORIENTED_EDGE('',*,*,#371,.T.);
#254=ORIENTED_EDGE('',*,*,#376,.T.);
#255=ORIENTED_EDGE('',*,*,#377,.F.);
#256=ORIENTED_EDGE('',*,*,#378,.F.);
#257=ORIENTED_EDGE('',*,*,#374,.T.);
#258=ORIENTED_EDGE('',*,*,#379,.T.);
#259=ORIENTED_EDGE('',*,*,#380,.F.);
#260=ORIENTED_EDGE('',*,*,#381,.F.);
#261=ORIENTED_EDGE('',*,*,#377,.T.);
#262=ORIENTED_EDGE('',*,*,#382,.T.);
#263=ORIENTED_EDGE('',*,*,#351,.F.);
#264=ORIENTED_EDGE('',*,*,#383,.F.);
#265=ORIENTED_EDGE('',*,*,#380,.T.);
#266=ORIENTED_EDGE('',*,*,#350,.T.);
#267=ORIENTED_EDGE('',*,*,#354,.F.);
#268=ORIENTED_EDGE('',*,*,#357,.T.);
#269=ORIENTED_EDGE('',*,*,#360,.F.);
#270=ORIENTED_EDGE('',*,*,#363,.T.);
#271=ORIENTED_EDGE('',*,*,#366,.T.);
#272=ORIENTED_EDGE('',*,*,#369,.T.);
#273=ORIENTED_EDGE('',*,*,#372,.T.);
#274=ORIENTED_EDGE('',*,*,#375,.F.);
#275=ORIENTED_EDGE('',*,*,#378,.T.);
#276=ORIENTED_EDGE('',*,*,#381,.T.);
#277=ORIENTED_EDGE('',*,*,#383,.T.);
#278=ORIENTED_EDGE('',*,*,#348,.F.);
#279=ORIENTED_EDGE('',*,*,#382,.F.);
#280=ORIENTED_EDGE('',*,*,#379,.F.);
#281=ORIENTED_EDGE('',*,*,#376,.F.);
#282=ORIENTED_EDGE('',*,*,#373,.T.);
#283=ORIENTED_EDGE('',*,*,#370,.F.);
#284=ORIENTED_EDGE('',*,*,#367,.F.);
#285=ORIENTED_EDGE('',*,*,#364,.F.);
#286=ORIENTED_EDGE('',*,*,#361,.F.);
#287=ORIENTED_EDGE('',*,*,#358,.T.);
#288=ORIENTED_EDGE('',*,*,#355,.F.);
#289=ORIENTED_EDGE('',*,*,#352,.T.);
#290=EDGE_CURVE('',#384,#384,#448,.T.);
#291=EDGE_CURVE('',#385,#385,#449,.T.);
#292=EDGE_CURVE('',#386,#387,#450,.T.);
#293=EDGE_CURVE('',#388,#386,#10,.T.);
#294=EDGE_CURVE('',#388,#389,#451,.T.);
#295=EDGE_CURVE('',#389,#387,#11,.T.);
#296=EDGE_CURVE('',#390,#386,#452,.T.);
#297=EDGE_CURVE('',#391,#390,#12,.T.);
#298=EDGE_CURVE('',#391,#388,#453,.T.);
#299=EDGE_CURVE('',#390,#392,#454,.T.);
#300=EDGE_CURVE('',#393,#392,#13,.T.);
#301=EDGE_CURVE('',#391,#393,#455,.T.);
#302=EDGE_CURVE('',#394,#392,#456,.T.);
#303=EDGE_CURVE('',#395,#394,#14,.T.);
#304=EDGE_CURVE('',#395,#393,#457,.T.);
#305=EDGE_CURVE('',#396,#394,#458,.T.);
#306=EDGE_CURVE('',#397,#396,#15,.T.);
#307=EDGE_CURVE('',#397,#395,#459,.T.);
#308=EDGE_CURVE('',#398,#396,#460,.T.);
#309=EDGE_CURVE('',#399,#398,#16,.T.);
#310=EDGE_CURVE('',#399,#397,#461,.T.);
#311=EDGE_CURVE('',#400,#398,#462,.T.);
#312=EDGE_CURVE('',#401,#400,#17,.T.);
#313=EDGE_CURVE('',#401,#399,#463,.T.);
#314=EDGE_CURVE('',#400,#402,#464,.T.);
#315=EDGE_CURVE('',#403,#402,#18,.T.);
#316=EDGE_CURVE('',#401,#403,#465,.T.);
#317=EDGE_CURVE('',#404,#402,#466,.T.);
#318=EDGE_CURVE('',#405,#404,#19,.T.);
#319=EDGE_CURVE('',#405,#403,#467,.T.);
#320=EDGE_CURVE('',#404,#406,#468,.T.);
#321=EDGE_CURVE('',#407,#406,#20,.T.);
#322=EDGE_CURVE('',#405,#407,#469,.T.);
#323=EDGE_CURVE('',#408,#406,#470,.T.);
#324=EDGE_CURVE('',#409,#408,#21,.T.);
#325=EDGE_CURVE('',#409,#407,#471,.T.);
#326=EDGE_CURVE('',#387,#408,#472,.T.);
#327=EDGE_CURVE('',#389,#409,#473,.T.);
#328=EDGE_CURVE('',#410,#410,#474,.T.);
#329=EDGE_CURVE('',#411,#411,#475,.T.);
#330=EDGE_CURVE('',#412,#413,#476,.T.);
#331=EDGE_CURVE('',#414,#412,#22,.T.);
#332=EDGE_CURVE('',#414,#415,#477,.T.);
#333=EDGE_CURVE('',#415,#413,#23,.T.);
#334=EDGE_CURVE('',#412,#416,#478,.T.);
#335=EDGE_CURVE('',#417,#416,#24,.T.);
#336=EDGE_CURVE('',#414,#417,#479,.T.);
#337=EDGE_CURVE('',#418,#416,#480,.T.);
#338=EDGE_CURVE('',#419,#418,#25,.T.);
#339=EDGE_CURVE('',#419,#417,#481,.T.);
#340=EDGE_CURVE('',#418,#420,#482,.T.);
#341=EDGE_CURVE('',#421,#420,#26,.T.);
#342=EDGE_CURVE('',#419,#421,#483,.T.);
#343=EDGE_CURVE('',#422,#420,#484,.T.);
#344=EDGE_CURVE('',#423,#422,#27,.T.);
#345=EDGE_CURVE('',#423,#421,#485,.T.);
#346=EDGE_CURVE('',#422,#413,#486,.T.);
#347=EDGE_CURVE('',#423,#415,#487,.T.);
#348=EDGE_CURVE('',#424,#425,#488,.T.);
#349=EDGE_CURVE('',#426,#425,#28,.T.);
#350=EDGE_CURVE('',#427,#426,#489,.T.);
#351=EDGE_CURVE('',#427,#424,#29,.T.);
#352=EDGE_CURVE('',#428,#425,#490,.T.);
#353=EDGE_CURVE('',#429,#428,#30,.T.);
#354=EDGE_CURVE('',#429,#426,#491,.T.);
#355=EDGE_CURVE('',#428,#430,#492,.T.);
#356=EDGE_CURVE('',#431,#430,#31,.T.);
#357=EDGE_CURVE('',#429,#431,#493,.T.);
#358=EDGE_CURVE('',#432,#430,#494,.T.);
#359=EDGE_CURVE('',#433,#432,#32,.T.);
#360=EDGE_CURVE('',#433,#431,#495,.T.);
#361=EDGE_CURVE('',#432,#434,#496,.T.);
#362=EDGE_CURVE('',#435,#434,#33,.T.);
#363=EDGE_CURVE('',#433,#435,#497,.T.);
#364=EDGE_CURVE('',#434,#436,#498,.T.);
#365=EDGE_CURVE('',#437,#436,#34,.T.);
#366=EDGE_CURVE('',#435,#437,#499,.T.);
#367=EDGE_CURVE('',#436,#438,#500,.T.);
#368=EDGE_CURVE('',#439,#438,#35,.T.);
#369=EDGE_CURVE('',#437,#439,#501,.T.);
#370=EDGE_CURVE('',#438,#440,#502,.T.);
#371=EDGE_CURVE('',#441,#440,#36,.T.);
#372=EDGE_CURVE('',#439,#441,#503,.T.);
#373=EDGE_CURVE('',#442,#440,#504,.T.);
#374=EDGE_CURVE('',#443,#442,#37,.T.);
#375=EDGE_CURVE('',#443,#441,#505,.T.);
#376=EDGE_CURVE('',#442,#444,#506,.T.);
#377=EDGE_CURVE('',#445,#444,#38,.T.);
#378=EDGE_CURVE('',#443,#445,#507,.T.);
#379=EDGE_CURVE('',#444,#446,#508,.T.);
#380=EDGE_CURVE('',#447,#446,#39,.T.);
#381=EDGE_CURVE('',#445,#447,#509,.T.);
#382=EDGE_CURVE('',#446,#424,#510,.T.);
#383=EDGE_CURVE('',#447,#427,#511,.T.);
#384=VERTEX_POINT('',#1079);
#385=VERTEX_POINT('',#1081);
#386=VERTEX_POINT('',#1087);
#387=VERTEX_POINT('',#1088);
#388=VERTEX_POINT('',#1090);
#389=VERTEX_POINT('',#1092);
#390=VERTEX_POINT('',#1096);
#391=VERTEX_POINT('',#1098);
#392=VERTEX_POINT('',#1102);
#393=VERTEX_POINT('',#1104);
#394=VERTEX_POINT('',#1108);
#395=VERTEX_POINT('',#1110);
#396=VERTEX_POINT('',#1114);
#397=VERTEX_POINT('',#1116);
#398=VERTEX_POINT('',#1120);
#399=VERTEX_POINT('',#1122);
#400=VERTEX_POINT('',#1126);
#401=VERTEX_POINT('',#1128);
#402=VERTEX_POINT('',#1132);
#403=VERTEX_POINT('',#1134);
#404=VERTEX_POINT('',#1138);
#405=VERTEX_POINT('',#1140);
#406=VERTEX_POINT('',#1144);
#407=VERTEX_POINT('',#1146);
#408=VERTEX_POINT('',#1150);
#409=VERTEX_POINT('',#1152);
#410=VERTEX_POINT('',#1159);
#411=VERTEX_POINT('',#1162);
#412=VERTEX_POINT('',#1167);
#413=VERTEX_POINT('',#1168);
#414=VERTEX_POINT('',#1170);
#415=VERTEX_POINT('',#1172);
#416=VERTEX_POINT('',#1176);
#417=VERTEX_POINT('',#1178);
#418=VERTEX_POINT('',#1182);
#419=VERTEX_POINT('',#1184);
#420=VERTEX_POINT('',#1188);
#421=VERTEX_POINT('',#1190);
#422=VERTEX_POINT('',#1194);
#423=VERTEX_POINT('',#1196);
#424=VERTEX_POINT('',#1206);
#425=VERTEX_POINT('',#1207);
#426=VERTEX_POINT('',#1209);
#427=VERTEX_POINT('',#1211);
#428=VERTEX_POINT('',#1215);
#429=VERTEX_POINT('',#1217);
#430=VERTEX_POINT('',#1221);
#431=VERTEX_POINT('',#1223);
#432=VERTEX_POINT('',#1227);
#433=VERTEX_POINT('',#1229);
#434=VERTEX_POINT('',#1233);
#435=VERTEX_POINT('',#1235);
#436=VERTEX_POINT('',#1239);
#437=VERTEX_POINT('',#1241);
#438=VERTEX_POINT('',#1245);
#439=VERTEX_POINT('',#1247);
#440=VERTEX_POINT('',#1251);
#441=VERTEX_POINT('',#1253);
#442=VERTEX_POINT('',#1257);
#443=VERTEX_POINT('',#1259);
#444=VERTEX_POINT('',#1263);
#445=VERTEX_POINT('',#1265);
#446=VERTEX_POINT('',#1269);
#447=VERTEX_POINT('',#1271);
#448=CIRCLE('',#721,0.00688245126084426);
#449=CIRCLE('',#722,0.00688245126084426);
#450=CIRCLE('',#727,0.0206185614658143);
#451=CIRCLE('',#728,0.0206185614658143);
#452=CIRCLE('',#730,0.0344760506254114);
#453=CIRCLE('',#731,0.0344760506254114);
#454=CIRCLE('',#733,0.0222595530967139);
#455=CIRCLE('',#734,0.0222595530967139);
#456=CIRCLE('',#736,0.01800904524093);
#457=CIRCLE('',#737,0.01800904524093);
#458=CIRCLE('',#739,0.161155758881725);
#459=CIRCLE('',#740,0.161155758881725);
#460=CIRCLE('',#742,0.0448282832852328);
#461=CIRCLE('',#743,0.0448282832852328);
#462=CIRCLE('',#745,0.0229285999458529);
#463=CIRCLE('',#746,0.0229285999458529);
#464=CIRCLE('',#748,0.00714700568162816);
#465=CIRCLE('',#749,0.00714700568162816);
#466=CIRCLE('',#751,0.0342953438421297);
#467=CIRCLE('',#752,0.0342953438421297);
#468=CIRCLE('',#754,0.0982776013852808);
#469=CIRCLE('',#755,0.0982776013852808);
#470=CIRCLE('',#757,0.141881091555731);
#471=CIRCLE('',#758,0.141881091555731);
#472=CIRCLE('',#760,0.123925723084311);
#473=CIRCLE('',#761,0.123925723084311);
#474=CIRCLE('',#763,0.00317296930622096);
#475=CIRCLE('',#765,0.00317296930622096);
#476=CIRCLE('',#769,0.09827760138528);
#477=CIRCLE('',#770,0.09827760138528);
#478=CIRCLE('',#772,0.0982776013852807);
#479=CIRCLE('',#773,0.0982776013852807);
#480=CIRCLE('',#775,0.0637679000379798);
#481=CIRCLE('',#776,0.0637679000379798);
#482=CIRCLE('',#778,0.0982776013852804);
#483=CIRCLE('',#779,0.0982776013852804);
#484=CIRCLE('',#781,0.0982776013852802);
#485=CIRCLE('',#782,0.0982776013852802);
#486=CIRCLE('',#784,0.0637679000379798);
#487=CIRCLE('',#785,0.0637679000379798);
#488=CIRCLE('',#790,0.141881091555731);
#489=CIRCLE('',#791,0.141881091555731);
#490=CIRCLE('',#793,0.0982776013852804);
#491=CIRCLE('',#794,0.0982776013852804);
#492=CIRCLE('',#796,0.0342953438421297);
#493=CIRCLE('',#797,0.0342953438421297);
#494=CIRCLE('',#799,0.00714700568162816);
#495=CIRCLE('',#800,0.00714700568162816);
#496=CIRCLE('',#802,0.0229285999458529);
#497=CIRCLE('',#803,0.0229285999458529);
#498=CIRCLE('',#805,0.0448282832852328);
#499=CIRCLE('',#806,0.0448282832852328);
#500=CIRCLE('',#808,0.161155758881725);
#501=CIRCLE('',#809,0.161155758881725);
#502=CIRCLE('',#811,0.01800904524093);
#503=CIRCLE('',#812,0.01800904524093);
#504=CIRCLE('',#814,0.0222595530967139);
#505=CIRCLE('',#815,0.0222595530967139);
#506=CIRCLE('',#817,0.0344760506254114);
#507=CIRCLE('',#818,0.0344760506254114);
#508=CIRCLE('',#820,0.0206185614658143);
#509=CIRCLE('',#821,0.0206185614658143);
#510=CIRCLE('',#823,0.123925723084311);
#511=CIRCLE('',#824,0.123925723084311);
#512=EDGE_LOOP('',(#102));
#513=EDGE_LOOP('',(#103));
#514=EDGE_LOOP('',(#104));
#515=EDGE_LOOP('',(#105));
#516=EDGE_LOOP('',(#106,#107,#108,#109));
#517=EDGE_LOOP('',(#110,#111,#112,#113));
#518=EDGE_LOOP('',(#114,#115,#116,#117));
#519=EDGE_LOOP('',(#118,#119,#120,#121));
#520=EDGE_LOOP('',(#122,#123,#124,#125));
#521=EDGE_LOOP('',(#126,#127,#128,#129));
#522=EDGE_LOOP('',(#130,#131,#132,#133));
#523=EDGE_LOOP('',(#134,#135,#136,#137));
#524=EDGE_LOOP('',(#138,#139,#140,#141));
#525=EDGE_LOOP('',(#142,#143,#144,#145));
#526=EDGE_LOOP('',(#146,#147,#148,#149));
#527=EDGE_LOOP('',(#150,#151,#152,#153));
#528=EDGE_LOOP('',(#154));
#529=EDGE_LOOP('',(#155,#156,#157,#158,#159,#160,#161,#162,#163,#164,#165,
#166));
#530=EDGE_LOOP('',(#167));
#531=EDGE_LOOP('',(#168,#169,#170,#171,#172,#173,#174,#175,#176,#177,#178,
#179));
#532=EDGE_LOOP('',(#180));
#533=EDGE_LOOP('',(#181));
#534=EDGE_LOOP('',(#182,#183,#184,#185));
#535=EDGE_LOOP('',(#186,#187,#188,#189));
#536=EDGE_LOOP('',(#190,#191,#192,#193));
#537=EDGE_LOOP('',(#194,#195,#196,#197));
#538=EDGE_LOOP('',(#198,#199,#200,#201));
#539=EDGE_LOOP('',(#202,#203,#204,#205));
#540=EDGE_LOOP('',(#206,#207,#208,#209,#210,#211));
#541=EDGE_LOOP('',(#212,#213,#214,#215,#216,#217));
#542=EDGE_LOOP('',(#218,#219,#220,#221));
#543=EDGE_LOOP('',(#222,#223,#224,#225));
#544=EDGE_LOOP('',(#226,#227,#228,#229));
#545=EDGE_LOOP('',(#230,#231,#232,#233));
#546=EDGE_LOOP('',(#234,#235,#236,#237));
#547=EDGE_LOOP('',(#238,#239,#240,#241));
#548=EDGE_LOOP('',(#242,#243,#244,#245));
#549=EDGE_LOOP('',(#246,#247,#248,#249));
#550=EDGE_LOOP('',(#250,#251,#252,#253));
#551=EDGE_LOOP('',(#254,#255,#256,#257));
#552=EDGE_LOOP('',(#258,#259,#260,#261));
#553=EDGE_LOOP('',(#262,#263,#264,#265));
#554=EDGE_LOOP('',(#266,#267,#268,#269,#270,#271,#272,#273,#274,#275,#276,
#277));
#555=EDGE_LOOP('',(#278,#279,#280,#281,#282,#283,#284,#285,#286,#287,#288,
#289));
#556=FACE_BOUND('',#512,.T.);
#557=FACE_BOUND('',#513,.T.);
#558=FACE_BOUND('',#514,.T.);
#559=FACE_BOUND('',#515,.T.);
#560=FACE_BOUND('',#516,.T.);
#561=FACE_BOUND('',#517,.T.);
#562=FACE_BOUND('',#518,.T.);
#563=FACE_BOUND('',#519,.T.);
#564=FACE_BOUND('',#520,.T.);
#565=FACE_BOUND('',#521,.T.);
#566=FACE_BOUND('',#522,.T.);
#567=FACE_BOUND('',#523,.T.);
#568=FACE_BOUND('',#524,.T.);
#569=FACE_BOUND('',#525,.T.);
#570=FACE_BOUND('',#526,.T.);
#571=FACE_BOUND('',#527,.T.);
#572=FACE_BOUND('',#528,.T.);
#573=FACE_BOUND('',#529,.T.);
#574=FACE_BOUND('',#530,.T.);
#575=FACE_BOUND('',#531,.T.);
#576=FACE_BOUND('',#532,.T.);
#577=FACE_BOUND('',#533,.T.);
#578=FACE_BOUND('',#534,.T.);
#579=FACE_BOUND('',#535,.T.);
#580=FACE_BOUND('',#536,.T.);
#581=FACE_BOUND('',#537,.T.);
#582=FACE_BOUND('',#538,.T.);
#583=FACE_BOUND('',#539,.T.);
#584=FACE_BOUND('',#540,.T.);
#585=FACE_BOUND('',#541,.T.);
#586=FACE_BOUND('',#542,.T.);
#587=FACE_BOUND('',#543,.T.);
#588=FACE_BOUND('',#544,.T.);
#589=FACE_BOUND('',#545,.T.);
#590=FACE_BOUND('',#546,.T.);
#591=FACE_BOUND('',#547,.T.);
#592=FACE_BOUND('',#548,.T.);
#593=FACE_BOUND('',#549,.T.);
#594=FACE_BOUND('',#550,.T.);
#595=FACE_BOUND('',#551,.T.);
#596=FACE_BOUND('',#552,.T.);
#597=FACE_BOUND('',#553,.T.);
#598=FACE_BOUND('',#554,.T.);
#599=FACE_BOUND('',#555,.T.);
#600=CYLINDRICAL_SURFACE('',#720,0.00688245126084426);
#601=CYLINDRICAL_SURFACE('',#726,0.0206185614658143);
#602=CYLINDRICAL_SURFACE('',#729,0.0344760506254114);
#603=CYLINDRICAL_SURFACE('',#732,0.0222595530967139);
#604=CYLINDRICAL_SURFACE('',#735,0.01800904524093);
#605=CYLINDRICAL_SURFACE('',#738,0.161155758881725);
#606=CYLINDRICAL_SURFACE('',#741,0.0448282832852328);
#607=CYLINDRICAL_SURFACE('',#744,0.0229285999458529);
#608=CYLINDRICAL_SURFACE('',#747,0.00714700568162816);
#609=CYLINDRICAL_SURFACE('',#750,0.0342953438421297);
#610=CYLINDRICAL_SURFACE('',#753,0.0982776013852808);
#611=CYLINDRICAL_SURFACE('',#756,0.141881091555731);
#612=CYLINDRICAL_SURFACE('',#759,0.123925723084311);
#613=CYLINDRICAL_SURFACE('',#766,0.00317296930622096);
#614=CYLINDRICAL_SURFACE('',#768,0.09827760138528);
#615=CYLINDRICAL_SURFACE('',#771,0.0982776013852807);
#616=CYLINDRICAL_SURFACE('',#774,0.0637679000379798);
#617=CYLINDRICAL_SURFACE('',#777,0.0982776013852804);
#618=CYLINDRICAL_SURFACE('',#780,0.0982776013852802);
#619=CYLINDRICAL_SURFACE('',#783,0.0637679000379798);
#620=CYLINDRICAL_SURFACE('',#789,0.141881091555731);
#621=CYLINDRICAL_SURFACE('',#792,0.0982776013852804);
#622=CYLINDRICAL_SURFACE('',#795,0.0342953438421297);
#623=CYLINDRICAL_SURFACE('',#798,0.00714700568162816);
#624=CYLINDRICAL_SURFACE('',#801,0.0229285999458529);
#625=CYLINDRICAL_SURFACE('',#804,0.0448282832852328);
#626=CYLINDRICAL_SURFACE('',#807,0.161155758881725);
#627=CYLINDRICAL_SURFACE('',#810,0.01800904524093);
#628=CYLINDRICAL_SURFACE('',#813,0.0222595530967139);
#629=CYLINDRICAL_SURFACE('',#816,0.0344760506254114);
#630=CYLINDRICAL_SURFACE('',#819,0.0206185614658143);
#631=CYLINDRICAL_SURFACE('',#822,0.123925723084311);
#632=ADVANCED_FACE('',(#556,#557),#600,.T.);
#633=ADVANCED_FACE('',(#558),#94,.T.);
#634=ADVANCED_FACE('',(#559),#95,.F.);
#635=ADVANCED_FACE('',(#560),#601,.T.);
#636=ADVANCED_FACE('',(#561),#602,.T.);
#637=ADVANCED_FACE('',(#562),#603,.F.);
#638=ADVANCED_FACE('',(#563),#604,.T.);
#639=ADVANCED_FACE('',(#564),#605,.T.);
#640=ADVANCED_FACE('',(#565),#606,.T.);
#641=ADVANCED_FACE('',(#566),#607,.T.);
#642=ADVANCED_FACE('',(#567),#608,.F.);
#643=ADVANCED_FACE('',(#568),#609,.T.);
#644=ADVANCED_FACE('',(#569),#610,.F.);
#645=ADVANCED_FACE('',(#570),#611,.T.);
#646=ADVANCED_FACE('',(#571),#612,.T.);
#647=ADVANCED_FACE('',(#572,#573),#96,.T.);
#648=ADVANCED_FACE('',(#574,#575),#97,.F.);
#649=ADVANCED_FACE('',(#576,#577),#613,.F.);
#650=ADVANCED_FACE('',(#578),#614,.T.);
#651=ADVANCED_FACE('',(#579),#615,.T.);
#652=ADVANCED_FACE('',(#580),#616,.F.);
#653=ADVANCED_FACE('',(#581),#617,.T.);
#654=ADVANCED_FACE('',(#582),#618,.T.);
#655=ADVANCED_FACE('',(#583),#619,.F.);
#656=ADVANCED_FACE('',(#584),#98,.T.);
#657=ADVANCED_FACE('',(#585),#99,.F.);
#658=ADVANCED_FACE('',(#586),#620,.T.);
#659=ADVANCED_FACE('',(#587),#621,.F.);
#660=ADVANCED_FACE('',(#588),#622,.T.);
#661=ADVANCED_FACE('',(#589),#623,.F.);
#662=ADVANCED_FACE('',(#590),#624,.T.);
#663=ADVANCED_FACE('',(#591),#625,.T.);
#664=ADVANCED_FACE('',(#592),#626,.T.);
#665=ADVANCED_FACE('',(#593),#627,.T.);
#666=ADVANCED_FACE('',(#594),#628,.F.);
#667=ADVANCED_FACE('',(#595),#629,.T.);
#668=ADVANCED_FACE('',(#596),#630,.T.);
#669=ADVANCED_FACE('',(#597),#631,.T.);
#670=ADVANCED_FACE('',(#598),#100,.T.);
#671=ADVANCED_FACE('',(#599),#101,.F.);
#672=CLOSED_SHELL('',(#632,#633,#634));
#673=CLOSED_SHELL('',(#635,#636,#637,#638,#639,#640,#641,#642,#643,#644,
#645,#646,#647,#648,#649));
#674=CLOSED_SHELL('',(#650,#651,#652,#653,#654,#655,#656,#657));
#675=CLOSED_SHELL('',(#658,#659,#660,#661,#662,#663,#664,#665,#666,#667,
#668,#669,#670,#671));
#676=STYLED_ITEM('',(#680),#705);
#677=STYLED_ITEM('',(#681),#706);
#678=STYLED_ITEM('',(#682),#707);
#679=STYLED_ITEM('',(#683),#708);
#680=PRESENTATION_STYLE_ASSIGNMENT((#684));
#681=PRESENTATION_STYLE_ASSIGNMENT((#685));
#682=PRESENTATION_STYLE_ASSIGNMENT((#686));
#683=PRESENTATION_STYLE_ASSIGNMENT((#687));
#684=SURFACE_STYLE_USAGE(.BOTH.,#688);
#685=SURFACE_STYLE_USAGE(.BOTH.,#689);
#686=SURFACE_STYLE_USAGE(.BOTH.,#690);
#687=SURFACE_STYLE_USAGE(.BOTH.,#691);
#688=SURFACE_SIDE_STYLE('',(#692));
#689=SURFACE_SIDE_STYLE('',(#693));
#690=SURFACE_SIDE_STYLE('',(#694));
#691=SURFACE_SIDE_STYLE('',(#695));
#692=SURFACE_STYLE_FILL_AREA(#696);
#693=SURFACE_STYLE_FILL_AREA(#697);
#694=SURFACE_STYLE_FILL_AREA(#698);
#695=SURFACE_STYLE_FILL_AREA(#699);
#696=FILL_AREA_STYLE('',(#700));
#697=FILL_AREA_STYLE('',(#701));
#698=FILL_AREA_STYLE('',(#702));
#699=FILL_AREA_STYLE('',(#703));
#700=FILL_AREA_STYLE_COLOUR('',#704);
#701=FILL_AREA_STYLE_COLOUR('',#704);
#702=FILL_AREA_STYLE_COLOUR('',#704);
#703=FILL_AREA_STYLE_COLOUR('',#704);
#704=COLOUR_RGB('',0.615686274509804,0.811764705882353,0.929411764705882);
#705=MANIFOLD_SOLID_BREP('Part 1',#672);
#706=MANIFOLD_SOLID_BREP('Part 1',#673);
#707=MANIFOLD_SOLID_BREP('Part 1',#674);
#708=MANIFOLD_SOLID_BREP('Part 1',#675);
#709=SHAPE_DEFINITION_REPRESENTATION(#1293,#714);
#710=SHAPE_DEFINITION_REPRESENTATION(#1294,#715);
#711=SHAPE_DEFINITION_REPRESENTATION(#1296,#716);
#712=SHAPE_DEFINITION_REPRESENTATION(#1298,#717);
#713=SHAPE_DEFINITION_REPRESENTATION(#1300,#718);
#714=SHAPE_REPRESENTATION('Butterfly base',(#719,#725,#767,#788,#827),#1280);
#715=SHAPE_REPRESENTATION('Part 1',(#719),#1281);
#716=SHAPE_REPRESENTATION('Part 1',(#719),#1282);
#717=SHAPE_REPRESENTATION('Part 1',(#719),#1283);
#718=SHAPE_REPRESENTATION('Part 1',(#719),#1284);
#719=AXIS2_PLACEMENT_3D('',#1076,#828,#829);
#720=AXIS2_PLACEMENT_3D('',#1077,#830,#831);
#721=AXIS2_PLACEMENT_3D('',#1078,#832,#833);
#722=AXIS2_PLACEMENT_3D('',#1080,#834,#835);
#723=AXIS2_PLACEMENT_3D('',#1082,#836,#837);
#724=AXIS2_PLACEMENT_3D('',#1083,#838,#839);
#725=AXIS2_PLACEMENT_3D('',#1084,#840,#841);
#726=AXIS2_PLACEMENT_3D('',#1085,#842,#843);
#727=AXIS2_PLACEMENT_3D('',#1086,#844,#845);
#728=AXIS2_PLACEMENT_3D('',#1091,#847,#848);
#729=AXIS2_PLACEMENT_3D('',#1094,#850,#851);
#730=AXIS2_PLACEMENT_3D('',#1095,#852,#853);
#731=AXIS2_PLACEMENT_3D('',#1099,#855,#856);
#732=AXIS2_PLACEMENT_3D('',#1100,#857,#858);
#733=AXIS2_PLACEMENT_3D('',#1101,#859,#860);
#734=AXIS2_PLACEMENT_3D('',#1105,#862,#863);
#735=AXIS2_PLACEMENT_3D('',#1106,#864,#865);
#736=AXIS2_PLACEMENT_3D('',#1107,#866,#867);
#737=AXIS2_PLACEMENT_3D('',#1111,#869,#870);
#738=AXIS2_PLACEMENT_3D('',#1112,#871,#872);
#739=AXIS2_PLACEMENT_3D('',#1113,#873,#874);
#740=AXIS2_PLACEMENT_3D('',#1117,#876,#877);
#741=AXIS2_PLACEMENT_3D('',#1118,#878,#879);
#742=AXIS2_PLACEMENT_3D('',#1119,#880,#881);
#743=AXIS2_PLACEMENT_3D('',#1123,#883,#884);
#744=AXIS2_PLACEMENT_3D('',#1124,#885,#886);
#745=AXIS2_PLACEMENT_3D('',#1125,#887,#888);
#746=AXIS2_PLACEMENT_3D('',#1129,#890,#891);
#747=AXIS2_PLACEMENT_3D('',#1130,#892,#893);
#748=AXIS2_PLACEMENT_3D('',#1131,#894,#895);
#749=AXIS2_PLACEMENT_3D('',#1135,#897,#898);
#750=AXIS2_PLACEMENT_3D('',#1136,#899,#900);
#751=AXIS2_PLACEMENT_3D('',#1137,#901,#902);
#752=AXIS2_PLACEMENT_3D('',#1141,#904,#905);
#753=AXIS2_PLACEMENT_3D('',#1142,#906,#907);
#754=AXIS2_PLACEMENT_3D('',#1143,#908,#909);
#755=AXIS2_PLACEMENT_3D('',#1147,#911,#912);
#756=AXIS2_PLACEMENT_3D('',#1148,#913,#914);
#757=AXIS2_PLACEMENT_3D('',#1149,#915,#916);
#758=AXIS2_PLACEMENT_3D('',#1153,#918,#919);
#759=AXIS2_PLACEMENT_3D('',#1154,#920,#921);
#760=AXIS2_PLACEMENT_3D('',#1155,#922,#923);
#761=AXIS2_PLACEMENT_3D('',#1156,#924,#925);
#762=AXIS2_PLACEMENT_3D('',#1157,#926,#927);
#763=AXIS2_PLACEMENT_3D('',#1158,#928,#929);
#764=AXIS2_PLACEMENT_3D('',#1160,#930,#931);
#765=AXIS2_PLACEMENT_3D('',#1161,#932,#933);
#766=AXIS2_PLACEMENT_3D('',#1163,#934,#935);
#767=AXIS2_PLACEMENT_3D('',#1164,#936,#937);
#768=AXIS2_PLACEMENT_3D('',#1165,#938,#939);
#769=AXIS2_PLACEMENT_3D('',#1166,#940,#941);
#770=AXIS2_PLACEMENT_3D('',#1171,#943,#944);
#771=AXIS2_PLACEMENT_3D('',#1174,#946,#947);
#772=AXIS2_PLACEMENT_3D('',#1175,#948,#949);
#773=AXIS2_PLACEMENT_3D('',#1179,#951,#952);
#774=AXIS2_PLACEMENT_3D('',#1180,#953,#954);
#775=AXIS2_PLACEMENT_3D('',#1181,#955,#956);
#776=AXIS2_PLACEMENT_3D('',#1185,#958,#959);
#777=AXIS2_PLACEMENT_3D('',#1186,#960,#961);
#778=AXIS2_PLACEMENT_3D('',#1187,#962,#963);
#779=AXIS2_PLACEMENT_3D('',#1191,#965,#966);
#780=AXIS2_PLACEMENT_3D('',#1192,#967,#968);
#781=AXIS2_PLACEMENT_3D('',#1193,#969,#970);
#782=AXIS2_PLACEMENT_3D('',#1197,#972,#973);
#783=AXIS2_PLACEMENT_3D('',#1198,#974,#975);
#784=AXIS2_PLACEMENT_3D('',#1199,#976,#977);
#785=AXIS2_PLACEMENT_3D('',#1200,#978,#979);
#786=AXIS2_PLACEMENT_3D('',#1201,#980,#981);
#787=AXIS2_PLACEMENT_3D('',#1202,#982,#983);
#788=AXIS2_PLACEMENT_3D('',#1203,#984,#985);
#789=AXIS2_PLACEMENT_3D('',#1204,#986,#987);
#790=AXIS2_PLACEMENT_3D('',#1205,#988,#989);
#791=AXIS2_PLACEMENT_3D('',#1210,#991,#992);
#792=AXIS2_PLACEMENT_3D('',#1213,#994,#995);
#793=AXIS2_PLACEMENT_3D('',#1214,#996,#997);
#794=AXIS2_PLACEMENT_3D('',#1218,#999,#1000);
#795=AXIS2_PLACEMENT_3D('',#1219,#1001,#1002);
#796=AXIS2_PLACEMENT_3D('',#1220,#1003,#1004);
#797=AXIS2_PLACEMENT_3D('',#1224,#1006,#1007);
#798=AXIS2_PLACEMENT_3D('',#1225,#1008,#1009);
#799=AXIS2_PLACEMENT_3D('',#1226,#1010,#1011);
#800=AXIS2_PLACEMENT_3D('',#1230,#1013,#1014);
#801=AXIS2_PLACEMENT_3D('',#1231,#1015,#1016);
#802=AXIS2_PLACEMENT_3D('',#1232,#1017,#1018);
#803=AXIS2_PLACEMENT_3D('',#1236,#1020,#1021);
#804=AXIS2_PLACEMENT_3D('',#1237,#1022,#1023);
#805=AXIS2_PLACEMENT_3D('',#1238,#1024,#1025);
#806=AXIS2_PLACEMENT_3D('',#1242,#1027,#1028);
#807=AXIS2_PLACEMENT_3D('',#1243,#1029,#1030);
#808=AXIS2_PLACEMENT_3D('',#1244,#1031,#1032);
#809=AXIS2_PLACEMENT_3D('',#1248,#1034,#1035);
#810=AXIS2_PLACEMENT_3D('',#1249,#1036,#1037);
#811=AXIS2_PLACEMENT_3D('',#1250,#1038,#1039);
#812=AXIS2_PLACEMENT_3D('',#1254,#1041,#1042);
#813=AXIS2_PLACEMENT_3D('',#1255,#1043,#1044);
#814=AXIS2_PLACEMENT_3D('',#1256,#1045,#1046);
#815=AXIS2_PLACEMENT_3D('',#1260,#1048,#1049);
#816=AXIS2_PLACEMENT_3D('',#1261,#1050,#1051);
#817=AXIS2_PLACEMENT_3D('',#1262,#1052,#1053);
#818=AXIS2_PLACEMENT_3D('',#1266,#1055,#1056);
#819=AXIS2_PLACEMENT_3D('',#1267,#1057,#1058);
#820=AXIS2_PLACEMENT_3D('',#1268,#1059,#1060);
#821=AXIS2_PLACEMENT_3D('',#1272,#1062,#1063);
#822=AXIS2_PLACEMENT_3D('',#1273,#1064,#1065);
#823=AXIS2_PLACEMENT_3D('',#1274,#1066,#1067);
#824=AXIS2_PLACEMENT_3D('',#1275,#1068,#1069);
#825=AXIS2_PLACEMENT_3D('',#1276,#1070,#1071);
#826=AXIS2_PLACEMENT_3D('',#1277,#1072,#1073);
#827=AXIS2_PLACEMENT_3D('',#1278,#1074,#1075);
#828=DIRECTION('',(0.,0.,1.));
#829=DIRECTION('',(1.,0.,0.));
#830=DIRECTION('',(0.,1.,0.));
#831=DIRECTION('',(0.,0.,1.));
#832=DIRECTION('',(0.,-1.,0.));
#833=DIRECTION('',(0.,0.,-1.));
#834=DIRECTION('',(0.,-1.,0.));
#835=DIRECTION('',(0.,0.,-1.));
#836=DIRECTION('',(0.,-1.,0.));
#837=DIRECTION('',(1.,0.,0.));
#838=DIRECTION('',(0.,-1.,0.));
#839=DIRECTION('',(1.,0.,0.));
#840=DIRECTION('',(0.,0.,1.));
#841=DIRECTION('',(1.,0.,0.));
#842=DIRECTION('',(0.,1.,0.));
#843=DIRECTION('',(0.,0.,1.));
#844=DIRECTION('',(0.,1.,0.));
#845=DIRECTION('',(0.,0.,-1.));
#846=DIRECTION('',(0.,1.,0.));
#847=DIRECTION('',(0.,1.,0.));
#848=DIRECTION('',(0.,0.,-1.));
#849=DIRECTION('',(0.,1.,0.));
#850=DIRECTION('',(0.,1.,0.));
#851=DIRECTION('',(0.,0.,1.));
#852=DIRECTION('',(0.,1.,0.));
#853=DIRECTION('',(0.,0.,-1.));
#854=DIRECTION('',(0.,1.,0.));
#855=DIRECTION('',(0.,1.,0.));
#856=DIRECTION('',(0.,0.,-1.));
#857=DIRECTION('',(0.,1.,0.));
#858=DIRECTION('',(0.,0.,1.));
#859=DIRECTION('',(0.,1.,0.));
#860=DIRECTION('',(0.,0.,-1.));
#861=DIRECTION('',(0.,1.,0.));
#862=DIRECTION('',(0.,1.,0.));
#863=DIRECTION('',(0.,0.,-1.));
#864=DIRECTION('',(0.,1.,0.));
#865=DIRECTION('',(0.,0.,1.));
#866=DIRECTION('',(0.,1.,0.));
#867=DIRECTION('',(0.,0.,-1.));
#868=DIRECTION('',(0.,1.,0.));
#869=DIRECTION('',(0.,1.,0.));
#870=DIRECTION('',(0.,0.,-1.));
#871=DIRECTION('',(0.,1.,0.));
#872=DIRECTION('',(0.,0.,1.));
#873=DIRECTION('',(0.,1.,0.));
#874=DIRECTION('',(0.,0.,-1.));
#875=DIRECTION('',(0.,1.,0.));
#876=DIRECTION('',(0.,1.,0.));
#877=DIRECTION('',(0.,0.,-1.));
#878=DIRECTION('',(0.,1.,0.));
#879=DIRECTION('',(0.,0.,1.));
#880=DIRECTION('',(0.,1.,0.));
#881=DIRECTION('',(0.,0.,-1.));
#882=DIRECTION('',(0.,1.,0.));
#883=DIRECTION('',(0.,1.,0.));
#884=DIRECTION('',(0.,0.,-1.));
#885=DIRECTION('',(0.,1.,0.));
#886=DIRECTION('',(0.,0.,1.));
#887=DIRECTION('',(0.,1.,0.));
#888=DIRECTION('',(0.,0.,-1.));
#889=DIRECTION('',(0.,1.,0.));
#890=DIRECTION('',(0.,1.,0.));
#891=DIRECTION('',(0.,0.,-1.));
#892=DIRECTION('',(0.,1.,0.));
#893=DIRECTION('',(0.,0.,1.));
#894=DIRECTION('',(0.,1.,0.));
#895=DIRECTION('',(0.,0.,-1.));
#896=DIRECTION('',(0.,1.,0.));
#897=DIRECTION('',(0.,1.,0.));
#898=DIRECTION('',(0.,0.,-1.));
#899=DIRECTION('',(0.,1.,0.));
#900=DIRECTION('',(0.,0.,1.));
#901=DIRECTION('',(0.,1.,0.));
#902=DIRECTION('',(0.,0.,-1.));
#903=DIRECTION('',(0.,1.,0.));
#904=DIRECTION('',(0.,1.,0.));
#905=DIRECTION('',(0.,0.,-1.));
#906=DIRECTION('',(0.,1.,0.));
#907=DIRECTION('',(0.,0.,1.));
#908=DIRECTION('',(0.,1.,0.));
#909=DIRECTION('',(0.,0.,-1.));
#910=DIRECTION('',(0.,1.,0.));
#911=DIRECTION('',(0.,1.,0.));
#912=DIRECTION('',(0.,0.,-1.));
#913=DIRECTION('',(0.,1.,0.));
#914=DIRECTION('',(0.,0.,1.));
#915=DIRECTION('',(0.,1.,0.));
#916=DIRECTION('',(0.,0.,-1.));
#917=DIRECTION('',(0.,1.,0.));
#918=DIRECTION('',(0.,1.,0.));
#919=DIRECTION('',(0.,0.,-1.));
#920=DIRECTION('',(0.,1.,0.));
#921=DIRECTION('',(0.,0.,1.));
#922=DIRECTION('',(0.,1.,0.));
#923=DIRECTION('',(0.,0.,-1.));
#924=DIRECTION('',(0.,1.,0.));
#925=DIRECTION('',(0.,0.,-1.));
#926=DIRECTION('',(0.,-1.,0.));
#927=DIRECTION('',(1.,0.,0.));
#928=DIRECTION('',(0.,-1.,0.));
#929=DIRECTION('',(0.,0.,-1.));
#930=DIRECTION('',(0.,-1.,0.));
#931=DIRECTION('',(1.,0.,0.));
#932=DIRECTION('',(0.,-1.,0.));
#933=DIRECTION('',(0.,0.,-1.));
#934=DIRECTION('',(0.,-1.,0.));
#935=DIRECTION('',(0.,0.,-1.));
#936=DIRECTION('',(0.,0.,1.));
#937=DIRECTION('',(0.939692620785908,-0.342020143325669,0.));
#938=DIRECTION('',(0.,1.,0.));
#939=DIRECTION('',(0.,0.,1.));
#940=DIRECTION('',(0.,1.,0.));
#941=DIRECTION('',(0.,0.,-1.));
#942=DIRECTION('',(0.,1.,0.));
#943=DIRECTION('',(0.,1.,0.));
#944=DIRECTION('',(0.,0.,-1.));
#945=DIRECTION('',(0.,1.,0.));
#946=DIRECTION('',(0.,1.,0.));
#947=DIRECTION('',(0.,0.,1.));
#948=DIRECTION('',(0.,-1.,0.));
#949=DIRECTION('',(0.,0.,-1.));
#950=DIRECTION('',(0.,1.,0.));
#951=DIRECTION('',(0.,-1.,0.));
#952=DIRECTION('',(0.,0.,-1.));
#953=DIRECTION('',(0.,1.,0.));
#954=DIRECTION('',(0.,0.,1.));
#955=DIRECTION('',(0.,-1.,0.));
#956=DIRECTION('',(0.,0.,-1.));
#957=DIRECTION('',(0.,1.,0.));
#958=DIRECTION('',(0.,-1.,0.));
#959=DIRECTION('',(0.,0.,-1.));
#960=DIRECTION('',(0.,1.,0.));
#961=DIRECTION('',(0.,0.,1.));
#962=DIRECTION('',(0.,-1.,0.));
#963=DIRECTION('',(0.,0.,-1.));
#964=DIRECTION('',(0.,1.,0.));
#965=DIRECTION('',(0.,-1.,0.));
#966=DIRECTION('',(0.,0.,-1.));
#967=DIRECTION('',(0.,1.,0.));
#968=DIRECTION('',(0.,0.,1.));
#969=DIRECTION('',(0.,1.,0.));
#970=DIRECTION('',(0.,0.,-1.));
#971=DIRECTION('',(0.,1.,0.));
#972=DIRECTION('',(0.,1.,0.));
#973=DIRECTION('',(0.,0.,-1.));
#974=DIRECTION('',(0.,1.,0.));
#975=DIRECTION('',(0.,0.,1.));
#976=DIRECTION('',(0.,1.,0.));
#977=DIRECTION('',(0.,0.,-1.));
#978=DIRECTION('',(0.,1.,0.));
#979=DIRECTION('',(0.,0.,-1.));
#980=DIRECTION('',(0.,-1.,0.));
#981=DIRECTION('',(1.,0.,0.));
#982=DIRECTION('',(0.,-1.,0.));
#983=DIRECTION('',(1.,0.,0.));
#984=DIRECTION('',(0.,0.,1.));
#985=DIRECTION('',(1.,0.,0.));
#986=DIRECTION('',(0.,1.,0.));
#987=DIRECTION('',(0.,0.,1.));
#988=DIRECTION('',(0.,-1.,0.));
#989=DIRECTION('',(0.,0.,-1.));
#990=DIRECTION('',(0.,1.,0.));
#991=DIRECTION('',(0.,-1.,0.));
#992=DIRECTION('',(0.,0.,-1.));
#993=DIRECTION('',(0.,1.,0.));
#994=DIRECTION('',(0.,1.,0.));
#995=DIRECTION('',(0.,0.,1.));
#996=DIRECTION('',(0.,-1.,0.));
#997=DIRECTION('',(0.,0.,-1.));
#998=DIRECTION('',(0.,1.,0.));
#999=DIRECTION('',(0.,-1.,0.));
#1000=DIRECTION('',(0.,0.,-1.));
#1001=DIRECTION('',(0.,1.,0.));
#1002=DIRECTION('',(0.,0.,1.));
#1003=DIRECTION('',(0.,-1.,0.));
#1004=DIRECTION('',(0.,0.,-1.));
#1005=DIRECTION('',(0.,1.,0.));
#1006=DIRECTION('',(0.,-1.,0.));
#1007=DIRECTION('',(0.,0.,-1.));
#1008=DIRECTION('',(0.,1.,0.));
#1009=DIRECTION('',(0.,0.,1.));
#1010=DIRECTION('',(0.,-1.,0.));
#1011=DIRECTION('',(0.,0.,-1.));
#1012=DIRECTION('',(0.,1.,0.));
#1013=DIRECTION('',(0.,-1.,0.));
#1014=DIRECTION('',(0.,0.,-1.));
#1015=DIRECTION('',(0.,1.,0.));
#1016=DIRECTION('',(0.,0.,1.));
#1017=DIRECTION('',(0.,-1.,0.));
#1018=DIRECTION('',(0.,0.,-1.));
#1019=DIRECTION('',(0.,1.,0.));
#1020=DIRECTION('',(0.,-1.,0.));
#1021=DIRECTION('',(0.,0.,-1.));
#1022=DIRECTION('',(0.,1.,0.));
#1023=DIRECTION('',(0.,0.,1.));
#1024=DIRECTION('',(0.,-1.,0.));
#1025=DIRECTION('',(0.,0.,-1.));
#1026=DIRECTION('',(0.,1.,0.));
#1027=DIRECTION('',(0.,-1.,0.));
#1028=DIRECTION('',(0.,0.,-1.));
#1029=DIRECTION('',(0.,1.,0.));
#1030=DIRECTION('',(0.,0.,1.));
#1031=DIRECTION('',(0.,-1.,0.));
#1032=DIRECTION('',(0.,0.,-1.));
#1033=DIRECTION('',(0.,1.,0.));
#1034=DIRECTION('',(0.,-1.,0.));
#1035=DIRECTION('',(0.,0.,-1.));
#1036=DIRECTION('',(0.,1.,0.));
#1037=DIRECTION('',(0.,0.,1.));
#1038=DIRECTION('',(0.,-1.,0.));
#1039=DIRECTION('',(0.,0.,-1.));
#1040=DIRECTION('',(0.,1.,0.));
#1041=DIRECTION('',(0.,-1.,0.));
#1042=DIRECTION('',(0.,0.,-1.));
#1043=DIRECTION('',(0.,1.,0.));
#1044=DIRECTION('',(0.,0.,1.));
#1045=DIRECTION('',(0.,-1.,0.));
#1046=DIRECTION('',(0.,0.,-1.));
#1047=DIRECTION('',(0.,1.,0.));
#1048=DIRECTION('',(0.,-1.,0.));
#1049=DIRECTION('',(0.,0.,-1.));
#1050=DIRECTION('',(0.,1.,0.));
#1051=DIRECTION('',(0.,0.,1.));
#1052=DIRECTION('',(0.,-1.,0.));
#1053=DIRECTION('',(0.,0.,-1.));
#1054=DIRECTION('',(0.,1.,0.));
#1055=DIRECTION('',(0.,-1.,0.));
#1056=DIRECTION('',(0.,0.,-1.));
#1057=DIRECTION('',(0.,1.,0.));
#1058=DIRECTION('',(0.,0.,1.));
#1059=DIRECTION('',(0.,-1.,0.));
#1060=DIRECTION('',(0.,0.,-1.));
#1061=DIRECTION('',(0.,1.,0.));
#1062=DIRECTION('',(0.,-1.,0.));
#1063=DIRECTION('',(0.,0.,-1.));
#1064=DIRECTION('',(0.,1.,0.));
#1065=DIRECTION('',(0.,0.,1.));
#1066=DIRECTION('',(0.,-1.,0.));
#1067=DIRECTION('',(0.,0.,-1.));
#1068=DIRECTION('',(0.,-1.,0.));
#1069=DIRECTION('',(0.,0.,-1.));
#1070=DIRECTION('',(0.,-1.,0.));
#1071=DIRECTION('',(1.,0.,0.));
#1072=DIRECTION('',(0.,-1.,0.));
#1073=DIRECTION('',(1.,0.,0.));
#1074=DIRECTION('',(2.95822839457879E-31,-8.67361737988402E-16,1.));
#1075=DIRECTION('',(0.951810588727655,0.306686490060966,2.66008127036842E-16));
#1076=CARTESIAN_POINT('',(0.,0.,0.));
#1077=CARTESIAN_POINT('',(4.27554732169115E-19,-0.0127,0.0195199322476803));
#1078=CARTESIAN_POINT('',(4.27554732169115E-19,-0.0127,0.0195199322476803));
#1079=CARTESIAN_POINT('',(4.27554732169115E-19,-0.0127,0.0126374809868361));
#1080=CARTESIAN_POINT('',(4.27554732169115E-19,0.,0.0195199322476803));
#1081=CARTESIAN_POINT('',(4.27554732169115E-19,0.,0.0126374809868361));
#1082=CARTESIAN_POINT('',(0.,-0.0127,-8.59354363335063E-5));
#1083=CARTESIAN_POINT('',(0.,0.,-8.59354363335063E-5));
#1084=CARTESIAN_POINT('',(6.96153593540956E-5,-8.05988906551255E-6,0.00691855540213314));
#1085=CARTESIAN_POINT('',(-0.107369523452287,-0.00635,0.0899190160289771));
#1086=CARTESIAN_POINT('',(-0.107369523452287,0.,0.0899190160289771));
#1087=CARTESIAN_POINT('',(-0.113846968429872,0.,0.0703443440398501));
#1088=CARTESIAN_POINT('',(-0.127,0.,0.0962253198140205));
#1089=CARTESIAN_POINT('',(-0.113846968429872,-0.00635,0.0703443440398501));
#1090=CARTESIAN_POINT('',(-0.113846968429872,-0.00635,0.0703443440398501));
#1091=CARTESIAN_POINT('',(-0.107369523452287,-0.00635,0.0899190160289771));
#1092=CARTESIAN_POINT('',(-0.127,-0.00635,0.0962253198140205));
#1093=CARTESIAN_POINT('',(-0.127,-0.00635,0.0962253198140205));
#1094=CARTESIAN_POINT('',(-0.0869880666304762,-0.00635,0.0487295930383621));
#1095=CARTESIAN_POINT('',(-0.0869880666304762,0.,0.0487295930383621));
#1096=CARTESIAN_POINT('',(-0.120950448727778,0.,0.0428004557484366));
#1097=CARTESIAN_POINT('',(-0.120950448727778,-0.00635,0.0428004557484366));
#1098=CARTESIAN_POINT('',(-0.120950448727778,-0.00635,0.0428004557484366));
#1099=CARTESIAN_POINT('',(-0.0869880666304762,-0.00635,0.0487295930383621));
#1100=CARTESIAN_POINT('',(-0.135361854114327,-0.00635,0.0258358131394695));
#1101=CARTESIAN_POINT('',(-0.135361854114327,0.,0.0258358131394695));
#1102=CARTESIAN_POINT('',(-0.114857884489405,0.,0.0171712338833429));
#1103=CARTESIAN_POINT('',(-0.114857884489405,-0.00635,0.0171712338833429));
#1104=CARTESIAN_POINT('',(-0.114857884489405,-0.00635,0.0171712338833429));
#1105=CARTESIAN_POINT('',(-0.135361854114327,-0.00635,0.0258358131394695));
#1106=CARTESIAN_POINT('',(-0.0968500413335701,-0.00635,0.0173793092656396));
#1107=CARTESIAN_POINT('',(-0.0968500413335701,0.,0.0173793092656396));
#1108=CARTESIAN_POINT('',(-0.101570774321054,0.,-6.93889390390723E-18));
#1109=CARTESIAN_POINT('',(-0.101570774321054,-0.00635,-6.93889390390723E-18));
#1110=CARTESIAN_POINT('',(-0.101570774321054,-0.00635,-6.93889390390723E-18));
#1111=CARTESIAN_POINT('',(-0.0968500413335701,-0.00635,0.0173793092656396));
#1112=CARTESIAN_POINT('',(-0.0537574906109189,-0.00635,0.153899540355386));
#1113=CARTESIAN_POINT('',(-0.0537574906109189,0.,0.153899540355386));
#1114=CARTESIAN_POINT('',(-0.0639977170653053,0.,-0.00693054508545382));
#1115=CARTESIAN_POINT('',(-0.0639977170653053,-0.00635,-0.00693054508545382));
#1116=CARTESIAN_POINT('',(-0.0639977170653053,-0.00635,-0.00693054508545382));
#1117=CARTESIAN_POINT('',(-0.0537574906109189,-0.00635,0.153899540355386));
#1118=CARTESIAN_POINT('',(-0.0453675218118801,-0.00635,-0.0477041984307248));
#1119=CARTESIAN_POINT('',(-0.0453675218118801,0.,-0.0477041984307248));
#1120=CARTESIAN_POINT('',(-0.0879816617512691,0.,-0.0337898152418353));
#1121=CARTESIAN_POINT('',(-0.0879816617512691,-0.00635,-0.0337898152418353));
#1122=CARTESIAN_POINT('',(-0.0879816617512691,-0.00635,-0.0337898152418353));
#1123=CARTESIAN_POINT('',(-0.0453675218118801,-0.00635,-0.0477041984307248));
#1124=CARTESIAN_POINT('',(-0.065318239494975,-0.00635,-0.0372668811183872));
#1125=CARTESIAN_POINT('',(-0.065318239494975,0.,-0.0372668811183872));
#1126=CARTESIAN_POINT('',(-0.0639977170653054,0.,-0.0601574231825172));
#1127=CARTESIAN_POINT('',(-0.0639977170653054,-0.00635,-0.0601574231825172));
#1128=CARTESIAN_POINT('',(-0.0639977170653054,-0.00635,-0.0601574231825172));
#1129=CARTESIAN_POINT('',(-0.065318239494975,-0.00635,-0.0372668811183872));
#1130=CARTESIAN_POINT('',(-0.0611286791041909,-0.00635,-0.0667032853404693));
#1131=CARTESIAN_POINT('',(-0.0611286791041909,0.,-0.0667032853404693));
#1132=CARTESIAN_POINT('',(-0.0548818524463765,0.,-0.0632309882736208));
#1133=CARTESIAN_POINT('',(-0.0548818524463765,-0.00635,-0.0632309882736208));
#1134=CARTESIAN_POINT('',(-0.0548818524463765,-0.00635,-0.0632309882736208));
#1135=CARTESIAN_POINT('',(-0.0611286791041909,-0.00635,-0.0667032853404693));
#1136=CARTESIAN_POINT('',(-0.0372815285473572,-0.00635,-0.0337963282976756));
#1137=CARTESIAN_POINT('',(-0.0372815285473572,0.,-0.0337963282976756));
#1138=CARTESIAN_POINT('',(-0.00448274094060589,0.,-0.0438168143526095));
#1139=CARTESIAN_POINT('',(-0.00448274094060589,-0.00635,-0.0438168143526095));
#1140=CARTESIAN_POINT('',(-0.00448274094060589,-0.00635,-0.0438168143526095));
#1141=CARTESIAN_POINT('',(-0.0372815285473572,-0.00635,-0.0337963282976756));
#1142=CARTESIAN_POINT('',(0.0905350279310658,-0.00635,-0.0187148117891939));
#1143=CARTESIAN_POINT('',(0.0905350279310658,0.,-0.0187148117891939));
#1144=CARTESIAN_POINT('',(-0.00467680562067449,0.,0.00564075607032964));
#1145=CARTESIAN_POINT('',(-0.00467680562067449,-0.00635,0.00564075607032964));
#1146=CARTESIAN_POINT('',(-0.00467680562067449,-0.00635,0.00564075607032964));
#1147=CARTESIAN_POINT('',(0.0905350279310658,-0.00635,-0.0187148117891939));
#1148=CARTESIAN_POINT('',(-0.138886532454238,-0.00635,-0.0403809058325814));
#1149=CARTESIAN_POINT('',(-0.138886532454238,0.,-0.0403809058325814));
#1150=CARTESIAN_POINT('',(-0.0761415486421078,0.,0.0868720357737373));
#1151=CARTESIAN_POINT('',(-0.0761415486421078,-0.00635,0.0868720357737373));
#1152=CARTESIAN_POINT('',(-0.0761415486421078,-0.00635,0.0868720357737373));
#1153=CARTESIAN_POINT('',(-0.138886532454238,-0.00635,-0.0403809058325814));
#1154=CARTESIAN_POINT('',(-0.123492522678202,-0.00635,-0.0276507571532711));
#1155=CARTESIAN_POINT('',(-0.123492522678202,0.,-0.0276507571532711));
#1156=CARTESIAN_POINT('',(-0.123492522678202,-0.00635,-0.0276507571532711));
#1157=CARTESIAN_POINT('',(0.,-0.00635,-8.59354363335063E-5));
#1158=CARTESIAN_POINT('',(-0.0132372015818439,-0.00635,-0.00550107196776158));
#1159=CARTESIAN_POINT('',(-0.0132372015818439,-0.00635,-0.00867404127398253));
#1160=CARTESIAN_POINT('',(0.,0.,-8.59354363335063E-5));
#1161=CARTESIAN_POINT('',(-0.0132372015818439,0.,-0.00550107196776158));
#1162=CARTESIAN_POINT('',(-0.0132372015818439,0.,-0.00867404127398253));
#1163=CARTESIAN_POINT('',(-0.0132372015818439,0.020066,-0.00550107196776158));
#1164=CARTESIAN_POINT('',(-0.000272411172753685,-0.00167281617763227,0.00086890559904567));
#1165=CARTESIAN_POINT('',(0.090535027931065,-0.0127,-0.0187148117891937));
#1166=CARTESIAN_POINT('',(0.090535027931065,0.,-0.0187148117891937));
#1167=CARTESIAN_POINT('',(1.38777878078145E-17,0.,-0.0569495558260678));
#1168=CARTESIAN_POINT('',(-0.00740944082066181,0.,-0.0106297654080029));
#1169=CARTESIAN_POINT('',(1.38777878078145E-17,-0.0127,-0.0569495558260678));
#1170=CARTESIAN_POINT('',(1.38777878078145E-17,-0.0127,-0.0569495558260678));
#1171=CARTESIAN_POINT('',(0.090535027931065,-0.0127,-0.0187148117891937));
#1172=CARTESIAN_POINT('',(-0.00740944082066181,-0.0127,-0.0106297654080029));
#1173=CARTESIAN_POINT('',(-0.00740944082066181,-0.0127,-0.0106297654080029));
#1174=CARTESIAN_POINT('',(-0.0905350279310656,-0.0127,-0.0187148117891935));
#1175=CARTESIAN_POINT('',(-0.0905350279310656,0.,-0.0187148117891935));
#1176=CARTESIAN_POINT('',(0.00740944082066179,0.,-0.0106297654080028));
#1177=CARTESIAN_POINT('',(0.00740944082066179,-0.0127,-0.0106297654080028));
#1178=CARTESIAN_POINT('',(0.00740944082066179,-0.0127,-0.0106297654080028));
#1179=CARTESIAN_POINT('',(-0.0905350279310656,-0.0127,-0.0187148117891935));
#1180=CARTESIAN_POINT('',(0.069623427411866,-0.0127,0.00336183734805244));
#1181=CARTESIAN_POINT('',(0.069623427411866,0.,0.00336183734805244));
#1182=CARTESIAN_POINT('',(0.00594420690078391,0.,2.77555756156289E-17));
#1183=CARTESIAN_POINT('',(0.00594420690078391,-0.0127,2.77555756156289E-17));
#1184=CARTESIAN_POINT('',(0.00594420690078391,-0.0127,2.77555756156289E-17));
#1185=CARTESIAN_POINT('',(0.069623427411866,-0.0127,0.00336183734805244));
#1186=CARTESIAN_POINT('',(-0.0905350279310653,-0.0127,-0.0187148117891938));
#1187=CARTESIAN_POINT('',(-0.0905350279310653,0.,-0.0187148117891938));
#1188=CARTESIAN_POINT('',(0.,0.,0.0195199322476803));
#1189=CARTESIAN_POINT('',(0.,-0.0127,0.0195199322476803));
#1190=CARTESIAN_POINT('',(0.,-0.0127,0.0195199322476803));
#1191=CARTESIAN_POINT('',(-0.0905350279310653,-0.0127,-0.0187148117891938));
#1192=CARTESIAN_POINT('',(0.0905350279310652,-0.0127,-0.0187148117891938));
#1193=CARTESIAN_POINT('',(0.0905350279310652,0.,-0.0187148117891938));
#1194=CARTESIAN_POINT('',(-0.00594420690078391,0.,2.77555756156289E-17));
#1195=CARTESIAN_POINT('',(-0.00594420690078391,-0.0127,2.77555756156289E-17));
#1196=CARTESIAN_POINT('',(-0.00594420690078391,-0.0127,2.77555756156289E-17));
#1197=CARTESIAN_POINT('',(0.0905350279310652,-0.0127,-0.0187148117891938));
#1198=CARTESIAN_POINT('',(-0.069623427411866,-0.0127,0.00336183734805245));
#1199=CARTESIAN_POINT('',(-0.069623427411866,0.,0.00336183734805245));
#1200=CARTESIAN_POINT('',(-0.069623427411866,-0.0127,0.00336183734805245));
#1201=CARTESIAN_POINT('',(0.,-0.0127,-8.59354363335063E-5));
#1202=CARTESIAN_POINT('',(0.,0.,-8.59354363335063E-5));
#1203=CARTESIAN_POINT('',(0.,0.,0.));
#1204=CARTESIAN_POINT('',(0.138886532454238,-0.00635,-0.0403809058325814));
#1205=CARTESIAN_POINT('',(0.138886532454238,0.,-0.0403809058325814));
#1206=CARTESIAN_POINT('',(0.0761415486421078,0.,0.0868720357737373));
#1207=CARTESIAN_POINT('',(0.00467680562067448,0.,0.00564075607032975));
#1208=CARTESIAN_POINT('',(0.00467680562067448,-0.00635,0.00564075607032975));
#1209=CARTESIAN_POINT('',(0.00467680562067448,-0.00635,0.00564075607032975));
#1210=CARTESIAN_POINT('',(0.138886532454238,-0.00635,-0.0403809058325814));
#1211=CARTESIAN_POINT('',(0.0761415486421078,-0.00635,0.0868720357737373));
#1212=CARTESIAN_POINT('',(0.0761415486421078,-0.00635,0.0868720357737373));
#1213=CARTESIAN_POINT('',(-0.0905350279310653,-0.00635,-0.0187148117891938));
#1214=CARTESIAN_POINT('',(-0.0905350279310653,0.,-0.0187148117891938));
#1215=CARTESIAN_POINT('',(0.00448274094060586,0.,-0.0438168143526095));
#1216=CARTESIAN_POINT('',(0.00448274094060586,-0.00635,-0.0438168143526095));
#1217=CARTESIAN_POINT('',(0.00448274094060586,-0.00635,-0.0438168143526095));
#1218=CARTESIAN_POINT('',(-0.0905350279310653,-0.00635,-0.0187148117891938));
#1219=CARTESIAN_POINT('',(0.0372815285473572,-0.00635,-0.0337963282976756));
#1220=CARTESIAN_POINT('',(0.0372815285473572,0.,-0.0337963282976756));
#1221=CARTESIAN_POINT('',(0.0548818524463765,0.,-0.0632309882736209));
#1222=CARTESIAN_POINT('',(0.0548818524463765,-0.00635,-0.0632309882736209));
#1223=CARTESIAN_POINT('',(0.0548818524463765,-0.00635,-0.0632309882736209));
#1224=CARTESIAN_POINT('',(0.0372815285473572,-0.00635,-0.0337963282976756));
#1225=CARTESIAN_POINT('',(0.0611286791041909,-0.00635,-0.0667032853404693));
#1226=CARTESIAN_POINT('',(0.0611286791041909,0.,-0.0667032853404693));
#1227=CARTESIAN_POINT('',(0.0639977170653054,0.,-0.0601574231825172));
#1228=CARTESIAN_POINT('',(0.0639977170653054,-0.00635,-0.0601574231825172));
#1229=CARTESIAN_POINT('',(0.0639977170653054,-0.00635,-0.0601574231825172));
#1230=CARTESIAN_POINT('',(0.0611286791041909,-0.00635,-0.0667032853404693));
#1231=CARTESIAN_POINT('',(0.065318239494975,-0.00635,-0.0372668811183872));
#1232=CARTESIAN_POINT('',(0.065318239494975,0.,-0.0372668811183872));
#1233=CARTESIAN_POINT('',(0.0879816617512691,0.,-0.0337898152418353));
#1234=CARTESIAN_POINT('',(0.0879816617512691,-0.00635,-0.0337898152418353));
#1235=CARTESIAN_POINT('',(0.0879816617512691,-0.00635,-0.0337898152418353));
#1236=CARTESIAN_POINT('',(0.065318239494975,-0.00635,-0.0372668811183872));
#1237=CARTESIAN_POINT('',(0.0453675218118801,-0.00635,-0.0477041984307248));
#1238=CARTESIAN_POINT('',(0.0453675218118801,0.,-0.0477041984307248));
#1239=CARTESIAN_POINT('',(0.0639977170653054,0.,-0.0069305450854538));
#1240=CARTESIAN_POINT('',(0.0639977170653054,-0.00635,-0.0069305450854538));
#1241=CARTESIAN_POINT('',(0.0639977170653054,-0.00635,-0.0069305450854538));
#1242=CARTESIAN_POINT('',(0.0453675218118801,-0.00635,-0.0477041984307248));
#1243=CARTESIAN_POINT('',(0.0537574906109189,-0.00635,0.153899540355386));
#1244=CARTESIAN_POINT('',(0.0537574906109189,0.,0.153899540355386));
#1245=CARTESIAN_POINT('',(0.101570774321054,0.,5.55111512312578E-17));
#1246=CARTESIAN_POINT('',(0.101570774321054,-0.00635,5.55111512312578E-17));
#1247=CARTESIAN_POINT('',(0.101570774321054,-0.00635,5.55111512312578E-17));
#1248=CARTESIAN_POINT('',(0.0537574906109189,-0.00635,0.153899540355386));
#1249=CARTESIAN_POINT('',(0.0968500413335701,-0.00635,0.0173793092656396));
#1250=CARTESIAN_POINT('',(0.0968500413335701,0.,0.0173793092656396));
#1251=CARTESIAN_POINT('',(0.114857884489405,0.,0.0171712338833429));
#1252=CARTESIAN_POINT('',(0.114857884489405,-0.00635,0.0171712338833429));
#1253=CARTESIAN_POINT('',(0.114857884489405,-0.00635,0.0171712338833429));
#1254=CARTESIAN_POINT('',(0.0968500413335701,-0.00635,0.0173793092656396));
#1255=CARTESIAN_POINT('',(0.135361854114327,-0.00635,0.0258358131394695));
#1256=CARTESIAN_POINT('',(0.135361854114327,0.,0.0258358131394695));
#1257=CARTESIAN_POINT('',(0.120950448727778,0.,0.0428004557484366));
#1258=CARTESIAN_POINT('',(0.120950448727778,-0.00635,0.0428004557484366));
#1259=CARTESIAN_POINT('',(0.120950448727778,-0.00635,0.0428004557484366));
#1260=CARTESIAN_POINT('',(0.135361854114327,-0.00635,0.0258358131394695));
#1261=CARTESIAN_POINT('',(0.0869880666304762,-0.00635,0.0487295930383621));
#1262=CARTESIAN_POINT('',(0.0869880666304762,0.,0.0487295930383621));
#1263=CARTESIAN_POINT('',(0.113846968429872,0.,0.0703443440398501));
#1264=CARTESIAN_POINT('',(0.113846968429872,-0.00635,0.0703443440398501));
#1265=CARTESIAN_POINT('',(0.113846968429872,-0.00635,0.0703443440398501));
#1266=CARTESIAN_POINT('',(0.0869880666304762,-0.00635,0.0487295930383621));
#1267=CARTESIAN_POINT('',(0.107369523452287,-0.00635,0.0899190160289771));
#1268=CARTESIAN_POINT('',(0.107369523452287,0.,0.0899190160289771));
#1269=CARTESIAN_POINT('',(0.127,0.,0.0962253198140205));
#1270=CARTESIAN_POINT('',(0.127,-0.00635,0.0962253198140205));
#1271=CARTESIAN_POINT('',(0.127,-0.00635,0.0962253198140205));
#1272=CARTESIAN_POINT('',(0.107369523452287,-0.00635,0.0899190160289771));
#1273=CARTESIAN_POINT('',(0.123492522678202,-0.00635,-0.027650757153271));
#1274=CARTESIAN_POINT('',(0.123492522678202,0.,-0.027650757153271));
#1275=CARTESIAN_POINT('',(0.123492522678202,-0.00635,-0.027650757153271));
#1276=CARTESIAN_POINT('',(0.,-0.00635,-8.59354363335063E-5));
#1277=CARTESIAN_POINT('',(0.,0.,-8.59354363335063E-5));
#1278=CARTESIAN_POINT('',(-0.00071973382042751,0.000627350695286791,-0.000217753841506693));
#1279=MECHANICAL_DESIGN_GEOMETRIC_PRESENTATION_REPRESENTATION('',(#676,
#677,#678,#679),#1280);
#1280=(
GEOMETRIC_REPRESENTATION_CONTEXT(3)
GLOBAL_UNCERTAINTY_ASSIGNED_CONTEXT((#1285))
GLOBAL_UNIT_ASSIGNED_CONTEXT((#1292,#1291,#1290))
REPRESENTATION_CONTEXT('Butterfly base','TOP_LEVEL_ASSEMBLY_PART')
);
#1281=(
GEOMETRIC_REPRESENTATION_CONTEXT(3)
GLOBAL_UNCERTAINTY_ASSIGNED_CONTEXT((#1286))
GLOBAL_UNIT_ASSIGNED_CONTEXT((#1292,#1291,#1290))
REPRESENTATION_CONTEXT('Part 1','COMPONENT_PART')
);
#1282=(
GEOMETRIC_REPRESENTATION_CONTEXT(3)
GLOBAL_UNCERTAINTY_ASSIGNED_CONTEXT((#1287))
GLOBAL_UNIT_ASSIGNED_CONTEXT((#1292,#1291,#1290))
REPRESENTATION_CONTEXT('Part 1','COMPONENT_PART')
);
#1283=(
GEOMETRIC_REPRESENTATION_CONTEXT(3)
GLOBAL_UNCERTAINTY_ASSIGNED_CONTEXT((#1288))
GLOBAL_UNIT_ASSIGNED_CONTEXT((#1292,#1291,#1290))
REPRESENTATION_CONTEXT('Part 1','COMPONENT_PART')
);
#1284=(
GEOMETRIC_REPRESENTATION_CONTEXT(3)
GLOBAL_UNCERTAINTY_ASSIGNED_CONTEXT((#1289))
GLOBAL_UNIT_ASSIGNED_CONTEXT((#1292,#1291,#1290))
REPRESENTATION_CONTEXT('Part 1','COMPONENT_PART')
);
#1285=UNCERTAINTY_MEASURE_WITH_UNIT(LENGTH_MEASURE(1.E-8),#1292,
'DISTANCE_ACCURACY_VALUE','Maximum Tolerance applied to model');
#1286=UNCERTAINTY_MEASURE_WITH_UNIT(LENGTH_MEASURE(1.E-8),#1292,
'DISTANCE_ACCURACY_VALUE','Maximum Tolerance applied to model');
#1287=UNCERTAINTY_MEASURE_WITH_UNIT(LENGTH_MEASURE(1.E-8),#1292,
'DISTANCE_ACCURACY_VALUE','Maximum Tolerance applied to model');
#1288=UNCERTAINTY_MEASURE_WITH_UNIT(LENGTH_MEASURE(1.E-8),#1292,
'DISTANCE_ACCURACY_VALUE','Maximum Tolerance applied to model');
#1289=UNCERTAINTY_MEASURE_WITH_UNIT(LENGTH_MEASURE(1.E-8),#1292,
'DISTANCE_ACCURACY_VALUE','Maximum Tolerance applied to model');
#1290=(
NAMED_UNIT(*)
SI_UNIT($,.STERADIAN.)
SOLID_ANGLE_UNIT()
);
#1291=(
NAMED_UNIT(*)
PLANE_ANGLE_UNIT()
SI_UNIT($,.RADIAN.)
);
#1292=(
LENGTH_UNIT()
NAMED_UNIT(*)
SI_UNIT($,.METRE.)
);
#1293=PRODUCT_DEFINITION_SHAPE('','',#1302);
#1294=PRODUCT_DEFINITION_SHAPE('','',#1303);
#1295=PRODUCT_DEFINITION_SHAPE(' ','NAUO PRDDFN',#74);
#1296=PRODUCT_DEFINITION_SHAPE('','',#1304);
#1297=PRODUCT_DEFINITION_SHAPE(' ','NAUO PRDDFN',#75);
#1298=PRODUCT_DEFINITION_SHAPE('','',#1305);
#1299=PRODUCT_DEFINITION_SHAPE(' ','NAUO PRDDFN',#76);
#1300=PRODUCT_DEFINITION_SHAPE('','',#1306);
#1301=PRODUCT_DEFINITION_SHAPE(' ','NAUO PRDDFN',#77);
#1302=PRODUCT_DEFINITION('','',#1312,#1307);
#1303=PRODUCT_DEFINITION('','',#1313,#1308);
#1304=PRODUCT_DEFINITION('','',#1314,#1309);
#1305=PRODUCT_DEFINITION('','',#1315,#1310);
#1306=PRODUCT_DEFINITION('','',#1316,#1311);
#1307=PRODUCT_DEFINITION_CONTEXT('',#1338,'design');
#1308=PRODUCT_DEFINITION_CONTEXT('',#1338,'design');
#1309=PRODUCT_DEFINITION_CONTEXT('',#1338,'design');
#1310=PRODUCT_DEFINITION_CONTEXT('',#1338,'design');
#1311=PRODUCT_DEFINITION_CONTEXT('',#1338,'design');
#1312=PRODUCT_DEFINITION_FORMATION_WITH_SPECIFIED_SOURCE('','',#1322,
 .NOT_KNOWN.);
#1313=PRODUCT_DEFINITION_FORMATION_WITH_SPECIFIED_SOURCE('','',#1323,
 .NOT_KNOWN.);
#1314=PRODUCT_DEFINITION_FORMATION_WITH_SPECIFIED_SOURCE('','',#1324,
 .NOT_KNOWN.);
#1315=PRODUCT_DEFINITION_FORMATION_WITH_SPECIFIED_SOURCE('','',#1325,
 .NOT_KNOWN.);
#1316=PRODUCT_DEFINITION_FORMATION_WITH_SPECIFIED_SOURCE('','',#1326,
 .NOT_KNOWN.);
#1317=PRODUCT_RELATED_PRODUCT_CATEGORY('','',(#1322));
#1318=PRODUCT_RELATED_PRODUCT_CATEGORY('','',(#1323));
#1319=PRODUCT_RELATED_PRODUCT_CATEGORY('','',(#1324));
#1320=PRODUCT_RELATED_PRODUCT_CATEGORY('','',(#1325));
#1321=PRODUCT_RELATED_PRODUCT_CATEGORY('','',(#1326));
#1322=PRODUCT('Butterfly base','Butterfly base','Butterfly base',(#1332));
#1323=PRODUCT('Part 1','Part 1','Part 1',(#1333));
#1324=PRODUCT('Part 1','Part 1','Part 1',(#1334));
#1325=PRODUCT('Part 1','Part 1','Part 1',(#1335));
#1326=PRODUCT('Part 1','Part 1','Part 1',(#1336));
#1327=PRODUCT_CATEGORY('','');
#1328=PRODUCT_CATEGORY('','');
#1329=PRODUCT_CATEGORY('','');
#1330=PRODUCT_CATEGORY('','');
#1331=PRODUCT_CATEGORY('','');
#1332=PRODUCT_CONTEXT('',#1338,'mechanical');
#1333=PRODUCT_CONTEXT('',#1338,'mechanical');
#1334=PRODUCT_CONTEXT('',#1338,'mechanical');
#1335=PRODUCT_CONTEXT('',#1338,'mechanical');
#1336=PRODUCT_CONTEXT('',#1338,'mechanical');
#1337=APPLICATION_PROTOCOL_DEFINITION('international standard',
'ap242_managed_model_based_3d_engineering',2020,#1338);
#1338=APPLICATION_CONTEXT('managed model based 3d engineering');
ENDSEC;
END-ISO-10303-21;
